<svg width="20" height="21" viewBox="0 0 20 21" fill="none" xmlns="http://www.w3.org/2000/svg">
<path d="M5.8 0.333496H14.2C17.4 0.333496 20 2.9335 20 6.1335V14.5335C20 16.0718 19.3889 17.547 18.3012 18.6347C17.2135 19.7224 15.7383 20.3335 14.2 20.3335H5.8C2.6 20.3335 0 17.7335 0 14.5335V6.1335C0 4.59524 0.61107 3.11999 1.69878 2.03228C2.78649 0.944566 4.26174 0.333496 5.8 0.333496ZM5.6 2.3335C4.64522 2.3335 3.72955 2.71278 3.05442 3.38791C2.37928 4.06304 2 4.97872 2 5.9335V14.7335C2 16.7235 3.61 18.3335 5.6 18.3335H14.4C15.3548 18.3335 16.2705 17.9542 16.9456 17.2791C17.6207 16.604 18 15.6883 18 14.7335V5.9335C18 3.9435 16.39 2.3335 14.4 2.3335H5.6ZM15.25 3.8335C15.5815 3.8335 15.8995 3.96519 16.1339 4.19961C16.3683 4.43403 16.5 4.75198 16.5 5.0835C16.5 5.41502 16.3683 5.73296 16.1339 5.96738C15.8995 6.2018 15.5815 6.3335 15.25 6.3335C14.9185 6.3335 14.6005 6.2018 14.3661 5.96738C14.1317 5.73296 14 5.41502 14 5.0835C14 4.75198 14.1317 4.43403 14.3661 4.19961C14.6005 3.96519 14.9185 3.8335 15.25 3.8335ZM10 5.3335C11.3261 5.3335 12.5979 5.86028 13.5355 6.79796C14.4732 7.73564 15 9.00741 15 10.3335C15 11.6596 14.4732 12.9313 13.5355 13.869C12.5979 14.8067 11.3261 15.3335 10 15.3335C8.67392 15.3335 7.40215 14.8067 6.46447 13.869C5.52678 12.9313 5 11.6596 5 10.3335C5 9.00741 5.52678 7.73564 6.46447 6.79796C7.40215 5.86028 8.67392 5.3335 10 5.3335ZM10 7.3335C9.20435 7.3335 8.44129 7.64957 7.87868 8.21218C7.31607 8.77478 7 9.53785 7 10.3335C7 11.1291 7.31607 11.8922 7.87868 12.4548C8.44129 13.0174 9.20435 13.3335 10 13.3335C10.7956 13.3335 11.5587 13.0174 12.1213 12.4548C12.6839 11.8922 13 11.1291 13 10.3335C13 9.53785 12.6839 8.77478 12.1213 8.21218C11.5587 7.64957 10.7956 7.3335 10 7.3335Z" fill="#CCCCCC"/>
</svg>
