<svg width="18" height="19" viewBox="0 0 18 19" fill="none" xmlns="http://www.w3.org/2000/svg">
<path d="M16 0.333496C16.5304 0.333496 17.0391 0.54421 17.4142 0.919282C17.7893 1.29436 18 1.80306 18 2.3335V16.3335C18 16.8639 17.7893 17.3726 17.4142 17.7477C17.0391 18.1228 16.5304 18.3335 16 18.3335H2C1.46957 18.3335 0.960859 18.1228 0.585786 17.7477C0.210714 17.3726 0 16.8639 0 16.3335V2.3335C0 1.80306 0.210714 1.29436 0.585786 0.919282C0.960859 0.54421 1.46957 0.333496 2 0.333496H16ZM15.5 15.8335V10.5335C15.5 9.66889 15.1565 8.8397 14.5452 8.22833C13.9338 7.61696 13.1046 7.2735 12.24 7.2735C11.39 7.2735 10.4 7.7935 9.92 8.5735V7.4635H7.13V15.8335H9.92V10.9035C9.92 10.1335 10.54 9.5035 11.31 9.5035C11.6813 9.5035 12.0374 9.651 12.2999 9.91355C12.5625 10.1761 12.71 10.5322 12.71 10.9035V15.8335H15.5ZM3.88 5.8935C4.32556 5.8935 4.75288 5.7165 5.06794 5.40144C5.383 5.08637 5.56 4.65906 5.56 4.2135C5.56 3.2835 4.81 2.5235 3.88 2.5235C3.43178 2.5235 3.00193 2.70155 2.68499 3.01849C2.36805 3.33542 2.19 3.76528 2.19 4.2135C2.19 5.1435 2.95 5.8935 3.88 5.8935ZM5.27 15.8335V7.4635H2.5V15.8335H5.27Z" fill="#CCCCCC"/>
</svg>
