<svg width="16" height="19" viewBox="0 0 16 19" fill="none" xmlns="http://www.w3.org/2000/svg">
<path d="M12.6 3.1535C11.9165 2.37312 11.5397 1.37093 11.54 0.333496H8.45003V12.7335C8.4262 13.4045 8.1429 14.0401 7.6598 14.5064C7.17669 14.9728 6.53148 15.2334 5.86003 15.2335C4.44003 15.2335 3.26003 14.0735 3.26003 12.6335C3.26003 10.9135 4.92003 9.6235 6.63003 10.1535V6.9935C3.18003 6.5335 0.160034 9.2135 0.160034 12.6335C0.160034 15.9635 2.92003 18.3335 5.85003 18.3335C8.99004 18.3335 11.54 15.7835 11.54 12.6335V6.3435C12.793 7.24335 14.2974 7.72614 15.84 7.7235V4.6335C15.84 4.6335 13.96 4.7235 12.6 3.1535Z" fill="#CCCCCC"/>
</svg>
