<svg width="20" height="21" viewBox="0 0 20 21" fill="none" xmlns="http://www.w3.org/2000/svg">
<path fill-rule="evenodd" clip-rule="evenodd" d="M10 0.333496C4.477 0.333496 0 4.8105 0 10.3335C0 12.2235 0.525 13.9935 1.438 15.5015L0.546 18.5335C0.494785 18.7076 0.491415 18.8922 0.536244 19.0681C0.581074 19.2439 0.672448 19.4044 0.800759 19.5327C0.929071 19.661 1.08958 19.7524 1.26542 19.7973C1.44125 19.8421 1.62592 19.8387 1.8 19.7875L4.832 18.8955C6.39068 19.8386 8.17822 20.336 10 20.3335C15.523 20.3335 20 15.8565 20 10.3335C20 4.8105 15.523 0.333496 10 0.333496ZM7.738 12.5965C9.761 14.6185 11.692 14.8855 12.374 14.9105C13.411 14.9485 14.421 14.1565 14.814 13.2375C14.8636 13.1232 14.8816 12.9976 14.8661 12.874C14.8507 12.7503 14.8023 12.6331 14.726 12.5345C14.178 11.8345 13.437 11.3315 12.713 10.8315C12.5618 10.727 12.3761 10.685 12.1947 10.7145C12.0133 10.744 11.8503 10.8425 11.74 10.9895L11.14 11.9045C11.1085 11.9537 11.0593 11.989 11.0026 12.0031C10.9459 12.0172 10.8859 12.0091 10.835 11.9805C10.428 11.7475 9.835 11.3515 9.409 10.9255C8.983 10.4995 8.611 9.9335 8.402 9.5525C8.37609 9.50409 8.3686 9.44793 8.38091 9.39443C8.39323 9.34092 8.42453 9.2937 8.469 9.2615L9.393 8.5755C9.52487 8.46084 9.60996 8.30169 9.63209 8.12836C9.65422 7.95502 9.61183 7.7796 9.513 7.6355C9.065 6.9795 8.543 6.1455 7.786 5.5925C7.68831 5.5217 7.57386 5.47756 7.45393 5.46441C7.334 5.45126 7.21271 5.46955 7.102 5.5175C6.182 5.9115 5.386 6.9215 5.424 7.9605C5.449 8.6425 5.716 10.5735 7.738 12.5965Z" fill="#CCCCCC"/>
</svg>
