<svg width="1347" height="800" viewBox="0 0 1347 800" fill="none" xmlns="http://www.w3.org/2000/svg">
<path d="M1351.07 292.31V162.31L1238.48 97.3101L1125.89 162.31V292.31L1238.48 357.31M1351.07 292.31L1238.48 357.31M1351.07 292.31L1463.65 357.31V487.31L1351.07 552.31L1238.48 487.31V357.31M225.2 -97.6899L337.79 -32.6899V97.3101L225.2 162.31L112.62 97.3101V-32.6899L225.2 -97.6899ZM225.2 682.31L337.79 747.31V877.31L225.2 942.31L112.62 877.31V747.31L225.2 682.31ZM900.72 292.31L1013.31 357.31V487.31L900.72 552.31L788.14 487.31V357.31L900.72 292.31Z" stroke="#292F40" stroke-opacity="0.6" stroke-width="2"/>
<path d="M212.2 -97.6899C212.2 -94.2421 213.57 -90.9355 216.008 -88.4976C218.446 -86.0596 221.752 -84.6899 225.2 -84.6899C228.648 -84.6899 231.954 -86.0596 234.392 -88.4976C236.83 -90.9355 238.2 -94.2421 238.2 -97.6899C238.2 -101.138 236.83 -104.444 234.392 -106.882C231.954 -109.32 228.648 -110.69 225.2 -110.69C221.752 -110.69 218.446 -109.32 216.008 -106.882C213.57 -104.444 212.2 -101.138 212.2 -97.6899ZM324.79 -32.6899C324.79 -29.2421 326.16 -25.9355 328.598 -23.4976C331.036 -21.0596 334.342 -19.6899 337.79 -19.6899C341.238 -19.6899 344.544 -21.0596 346.982 -23.4976C349.42 -25.9355 350.79 -29.2421 350.79 -32.6899C350.79 -36.1378 349.42 -39.4444 346.982 -41.8823C344.544 -44.3203 341.238 -45.6899 337.79 -45.6899C334.342 -45.6899 331.036 -44.3203 328.598 -41.8823C326.16 -39.4444 324.79 -36.1378 324.79 -32.6899ZM324.79 97.3101C324.79 100.758 326.16 104.064 328.598 106.502C331.036 108.94 334.342 110.31 337.79 110.31C341.238 110.31 344.544 108.94 346.982 106.502C349.42 104.064 350.79 100.758 350.79 97.3101C350.79 93.8622 349.42 90.5556 346.982 88.1177C344.544 85.6797 341.238 84.3101 337.79 84.3101C334.342 84.3101 331.036 85.6797 328.598 88.1177C326.16 90.5556 324.79 93.8622 324.79 97.3101ZM212.2 162.31C212.2 165.758 213.57 169.064 216.008 171.502C218.446 173.94 221.752 175.31 225.2 175.31C228.648 175.31 231.954 173.94 234.392 171.502C236.83 169.064 238.2 165.758 238.2 162.31C238.2 158.862 236.83 155.556 234.392 153.118C231.954 150.68 228.648 149.31 225.2 149.31C221.752 149.31 218.446 150.68 216.008 153.118C213.57 155.556 212.2 158.862 212.2 162.31ZM99.62 97.3101C99.62 100.758 100.99 104.064 103.428 106.502C105.866 108.94 109.172 110.31 112.62 110.31C116.068 110.31 119.374 108.94 121.812 106.502C124.25 104.064 125.62 100.758 125.62 97.3101C125.62 93.8622 124.25 90.5556 121.812 88.1177C119.374 85.6797 116.068 84.3101 112.62 84.3101C109.172 84.3101 105.866 85.6797 103.428 88.1177C100.99 90.5556 99.62 93.8622 99.62 97.3101ZM99.62 -32.6899C99.62 -29.2421 100.99 -25.9355 103.428 -23.4976C105.866 -21.0596 109.172 -19.6899 112.62 -19.6899C116.068 -19.6899 119.374 -21.0596 121.812 -23.4976C124.25 -25.9355 125.62 -29.2421 125.62 -32.6899C125.62 -36.1378 124.25 -39.4444 121.812 -41.8823C119.374 -44.3203 116.068 -45.6899 112.62 -45.6899C109.172 -45.6899 105.866 -44.3203 103.428 -41.8823C100.99 -39.4444 99.62 -36.1378 99.62 -32.6899ZM212.2 682.31C212.2 685.758 213.57 689.064 216.008 691.502C218.446 693.94 221.752 695.31 225.2 695.31C228.648 695.31 231.954 693.94 234.392 691.502C236.83 689.064 238.2 685.758 238.2 682.31C238.2 678.862 236.83 675.556 234.392 673.118C231.954 670.68 228.648 669.31 225.2 669.31C221.752 669.31 218.446 670.68 216.008 673.118C213.57 675.556 212.2 678.862 212.2 682.31ZM324.79 747.31C324.79 750.758 326.16 754.064 328.598 756.502C331.036 758.94 334.342 760.31 337.79 760.31C341.238 760.31 344.544 758.94 346.982 756.502C349.42 754.064 350.79 750.758 350.79 747.31C350.79 743.862 349.42 740.556 346.982 738.118C344.544 735.68 341.238 734.31 337.79 734.31C334.342 734.31 331.036 735.68 328.598 738.118C326.16 740.556 324.79 743.862 324.79 747.31ZM324.79 877.31C324.79 880.758 326.16 884.064 328.598 886.502C331.036 888.94 334.342 890.31 337.79 890.31C341.238 890.31 344.544 888.94 346.982 886.502C349.42 884.064 350.79 880.758 350.79 877.31C350.79 873.862 349.42 870.556 346.982 868.118C344.544 865.68 341.238 864.31 337.79 864.31C334.342 864.31 331.036 865.68 328.598 868.118C326.16 870.556 324.79 873.862 324.79 877.31ZM212.2 942.31C212.2 945.758 213.57 949.064 216.008 951.502C218.446 953.94 221.752 955.31 225.2 955.31C228.648 955.31 231.954 953.94 234.392 951.502C236.83 949.064 238.2 945.758 238.2 942.31C238.2 938.862 236.83 935.556 234.392 933.118C231.954 930.68 228.648 929.31 225.2 929.31C221.752 929.31 218.446 930.68 216.008 933.118C213.57 935.556 212.2 938.862 212.2 942.31ZM99.62 877.31C99.62 880.758 100.99 884.064 103.428 886.502C105.866 888.94 109.172 890.31 112.62 890.31C116.068 890.31 119.374 888.94 121.812 886.502C124.25 884.064 125.62 880.758 125.62 877.31C125.62 873.862 124.25 870.556 121.812 868.118C119.374 865.68 116.068 864.31 112.62 864.31C109.172 864.31 105.866 865.68 103.428 868.118C100.99 870.556 99.62 873.862 99.62 877.31ZM99.62 747.31C99.62 750.758 100.99 754.064 103.428 756.502C105.866 758.94 109.172 760.31 112.62 760.31C116.068 760.31 119.374 758.94 121.812 756.502C124.25 754.064 125.62 750.758 125.62 747.31C125.62 743.862 124.25 740.556 121.812 738.118C119.374 735.68 116.068 734.31 112.62 734.31C109.172 734.31 105.866 735.68 103.428 738.118C100.99 740.556 99.62 743.862 99.62 747.31ZM887.72 292.31C887.72 295.758 889.09 299.064 891.528 301.502C893.966 303.94 897.272 305.31 900.72 305.31C904.168 305.31 907.474 303.94 909.912 301.502C912.35 299.064 913.72 295.758 913.72 292.31C913.72 288.862 912.35 285.556 909.912 283.118C907.474 280.68 904.168 279.31 900.72 279.31C897.272 279.31 893.966 280.68 891.528 283.118C889.09 285.556 887.72 288.862 887.72 292.31ZM1000.31 357.31C1000.31 360.758 1001.68 364.064 1004.12 366.502C1006.56 368.94 1009.86 370.31 1013.31 370.31C1016.76 370.31 1020.06 368.94 1022.5 366.502C1024.94 364.064 1026.31 360.758 1026.31 357.31C1026.31 353.862 1024.94 350.556 1022.5 348.118C1020.06 345.68 1016.76 344.31 1013.31 344.31C1009.86 344.31 1006.56 345.68 1004.12 348.118C1001.68 350.556 1000.31 353.862 1000.31 357.31ZM1000.31 487.31C1000.31 490.758 1001.68 494.064 1004.12 496.502C1006.56 498.94 1009.86 500.31 1013.31 500.31C1016.76 500.31 1020.06 498.94 1022.5 496.502C1024.94 494.064 1026.31 490.758 1026.31 487.31C1026.31 483.862 1024.94 480.556 1022.5 478.118C1020.06 475.68 1016.76 474.31 1013.31 474.31C1009.86 474.31 1006.56 475.68 1004.12 478.118C1001.68 480.556 1000.31 483.862 1000.31 487.31ZM887.72 552.31C887.72 555.758 889.09 559.064 891.528 561.502C893.966 563.94 897.272 565.31 900.72 565.31C904.168 565.31 907.474 563.94 909.912 561.502C912.35 559.064 913.72 555.758 913.72 552.31C913.72 548.862 912.35 545.556 909.912 543.118C907.474 540.68 904.168 539.31 900.72 539.31C897.272 539.31 893.966 540.68 891.528 543.118C889.09 545.556 887.72 548.862 887.72 552.31ZM775.14 487.31C775.14 490.758 776.51 494.064 778.948 496.502C781.386 498.94 784.692 500.31 788.14 500.31C791.588 500.31 794.894 498.94 797.332 496.502C799.77 494.064 801.14 490.758 801.14 487.31C801.14 483.862 799.77 480.556 797.332 478.118C794.894 475.68 791.588 474.31 788.14 474.31C784.692 474.31 781.386 475.68 778.948 478.118C776.51 480.556 775.14 483.862 775.14 487.31ZM775.14 357.31C775.14 360.758 776.51 364.064 778.948 366.502C781.386 368.94 784.692 370.31 788.14 370.31C791.588 370.31 794.894 368.94 797.332 366.502C799.77 364.064 801.14 360.758 801.14 357.31C801.14 353.862 799.77 350.556 797.332 348.118C794.894 345.68 791.588 344.31 788.14 344.31C784.692 344.31 781.386 345.68 778.948 348.118C776.51 350.556 775.14 353.862 775.14 357.31ZM1225.48 97.3101C1225.48 100.758 1226.85 104.064 1229.29 106.502C1231.73 108.94 1235.03 110.31 1238.48 110.31C1241.93 110.31 1245.23 108.94 1247.67 106.502C1250.11 104.064 1251.48 100.758 1251.48 97.3101C1251.48 93.8622 1250.11 90.5556 1247.67 88.1177C1245.23 85.6797 1241.93 84.3101 1238.48 84.3101C1235.03 84.3101 1231.73 85.6797 1229.29 88.1177C1226.85 90.5556 1225.48 93.8622 1225.48 97.3101ZM1338.07 162.31C1338.07 165.758 1339.44 169.064 1341.88 171.502C1344.32 173.94 1347.62 175.31 1351.07 175.31C1354.52 175.31 1357.82 173.94 1360.26 171.502C1362.7 169.064 1364.07 165.758 1364.07 162.31C1364.07 158.862 1362.7 155.556 1360.26 153.118C1357.82 150.68 1354.52 149.31 1351.07 149.31C1347.62 149.31 1344.32 150.68 1341.88 153.118C1339.44 155.556 1338.07 158.862 1338.07 162.31ZM1338.07 292.31C1338.07 295.758 1339.44 299.064 1341.88 301.502C1344.32 303.94 1347.62 305.31 1351.07 305.31C1354.52 305.31 1357.82 303.94 1360.26 301.502C1362.7 299.064 1364.07 295.758 1364.07 292.31C1364.07 288.862 1362.7 285.556 1360.26 283.118C1357.82 280.68 1354.52 279.31 1351.07 279.31C1347.62 279.31 1344.32 280.68 1341.88 283.118C1339.44 285.556 1338.07 288.862 1338.07 292.31ZM1225.48 357.31C1225.48 360.758 1226.85 364.064 1229.29 366.502C1231.73 368.94 1235.03 370.31 1238.48 370.31C1241.93 370.31 1245.23 368.94 1247.67 366.502C1250.11 364.064 1251.48 360.758 1251.48 357.31C1251.48 353.862 1250.11 350.556 1247.67 348.118C1245.23 345.68 1241.93 344.31 1238.48 344.31C1235.03 344.31 1231.73 345.68 1229.29 348.118C1226.85 350.556 1225.48 353.862 1225.48 357.31ZM1112.89 292.31C1112.89 295.758 1114.26 299.064 1116.7 301.502C1119.14 303.94 1122.44 305.31 1125.89 305.31C1129.34 305.31 1132.64 303.94 1135.08 301.502C1137.52 299.064 1138.89 295.758 1138.89 292.31C1138.89 288.862 1137.52 285.556 1135.08 283.118C1132.64 280.68 1129.34 279.31 1125.89 279.31C1122.44 279.31 1119.14 280.68 1116.7 283.118C1114.26 285.556 1112.89 288.862 1112.89 292.31ZM1112.89 162.31C1112.89 165.758 1114.26 169.064 1116.7 171.502C1119.14 173.94 1122.44 175.31 1125.89 175.31C1129.34 175.31 1132.64 173.94 1135.08 171.502C1137.52 169.064 1138.89 165.758 1138.89 162.31C1138.89 158.862 1137.52 155.556 1135.08 153.118C1132.64 150.68 1129.34 149.31 1125.89 149.31C1122.44 149.31 1119.14 150.68 1116.7 153.118C1114.26 155.556 1112.89 158.862 1112.89 162.31ZM1450.65 357.31C1450.65 360.758 1452.02 364.064 1454.46 366.502C1456.9 368.94 1460.2 370.31 1463.65 370.31C1467.1 370.31 1470.4 368.94 1472.84 366.502C1475.28 364.064 1476.65 360.758 1476.65 357.31C1476.65 353.862 1475.28 350.556 1472.84 348.118C1470.4 345.68 1467.1 344.31 1463.65 344.31C1460.2 344.31 1456.9 345.68 1454.46 348.118C1452.02 350.556 1450.65 353.862 1450.65 357.31ZM1450.65 487.31C1450.65 490.758 1452.02 494.064 1454.46 496.502C1456.9 498.94 1460.2 500.31 1463.65 500.31C1467.1 500.31 1470.4 498.94 1472.84 496.502C1475.28 494.064 1476.65 490.758 1476.65 487.31C1476.65 483.862 1475.28 480.556 1472.84 478.118C1470.4 475.68 1467.1 474.31 1463.65 474.31C1460.2 474.31 1456.9 475.68 1454.46 478.118C1452.02 480.556 1450.65 483.862 1450.65 487.31ZM1338.07 552.31C1338.07 555.758 1339.44 559.064 1341.88 561.502C1344.32 563.94 1347.62 565.31 1351.07 565.31C1354.52 565.31 1357.82 563.94 1360.26 561.502C1362.7 559.064 1364.07 555.758 1364.07 552.31C1364.07 548.862 1362.7 545.556 1360.26 543.118C1357.82 540.68 1354.52 539.31 1351.07 539.31C1347.62 539.31 1344.32 540.68 1341.88 543.118C1339.44 545.556 1338.07 548.862 1338.07 552.31ZM1225.48 487.31C1225.48 490.758 1226.85 494.064 1229.29 496.502C1231.73 498.94 1235.03 500.31 1238.48 500.31C1241.93 500.31 1245.23 498.94 1247.67 496.502C1250.11 494.064 1251.48 490.758 1251.48 487.31C1251.48 483.862 1250.11 480.556 1247.67 478.118C1245.23 475.68 1241.93 474.31 1238.48 474.31C1235.03 474.31 1231.73 475.68 1229.29 478.118C1226.85 480.556 1225.48 483.862 1225.48 487.31Z" fill="#292F40" fill-opacity="0.6"/>
<path d="M833.31 526.25L902.6 566.25M833.31 526.25L764.03 566.25V646.25L833.31 686.25L902.6 646.25V566.25M833.31 526.25V446.25L902.6 406.25L971.88 446.25V526.25L902.6 566.25M71.19 646.25L140.47 686.25V766.25L71.19 806.25L1.90002 766.25V686.25L71.19 646.25ZM279.04 286.25L348.32 326.25V406.25L279.04 446.25L209.76 406.25V326.25L279.04 286.25ZM279.04 526.25L348.32 566.25V646.25L279.04 686.25L209.76 646.25V566.25L279.04 526.25ZM279.04 766.25L348.32 806.25V886.25L279.04 926.25L209.76 886.25V806.25L279.04 766.25ZM556.18 46.25L625.46 86.25V166.25L556.18 206.25L486.89 166.25V86.25L556.18 46.25ZM1110.45 766.25L1179.73 806.25V886.25L1110.45 926.25L1041.16 886.25V806.25L1110.45 766.25Z" stroke="#292F40" stroke-width="2"/>
</svg>
