<svg width="1440" height="700" viewBox="0 0 1440 700" fill="none" xmlns="http://www.w3.org/2000/svg">
<g clip-path="url(#clip0_76_4)">
<mask id="mask0_76_4" style="mask-type:luminance" maskUnits="userSpaceOnUse" x="0" y="0" width="1440" height="700">
<path d="M1440 0H0V700H1440V0Z" fill="white"/>
</mask>
<g mask="url(#mask0_76_4)">
<path d="M718.7 343.23C743.608 343.23 763.8 323.038 763.8 298.13C763.8 273.222 743.608 253.03 718.7 253.03C693.792 253.03 673.6 273.222 673.6 298.13C673.6 323.038 693.792 343.23 718.7 343.23Z" fill="#7B7C7F" fill-opacity="0.1"/>
<path d="M512.92 229.775C523.571 229.775 532.205 221.141 532.205 210.49C532.205 199.839 523.571 191.205 512.92 191.205C502.269 191.205 493.635 199.839 493.635 210.49C493.635 221.141 502.269 229.775 512.92 229.775Z" fill="#A8B2BF" fill-opacity="0.1"/>
<path d="M1385.64 382.555C1409.76 382.555 1429.31 363.001 1429.31 338.88C1429.31 314.759 1409.76 295.205 1385.64 295.205C1361.52 295.205 1341.96 314.759 1341.96 338.88C1341.96 363.001 1361.52 382.555 1385.64 382.555Z" fill="#7B7C7F" fill-opacity="0.1"/>
<path d="M454.09 700.18C471.261 700.18 485.18 686.261 485.18 669.09C485.18 651.919 471.261 638 454.09 638C436.919 638 423 651.919 423 669.09C423 686.261 436.919 700.18 454.09 700.18Z" fill="#F2F2F2" fill-opacity="0.1"/>
<path d="M443.56 559.84C465.53 559.84 483.34 542.03 483.34 520.06C483.34 498.09 465.53 480.28 443.56 480.28C421.59 480.28 403.78 498.09 403.78 520.06C403.78 542.03 421.59 559.84 443.56 559.84Z" fill="#A8B2BF" fill-opacity="0.1"/>
<path d="M1050.55 198.065C1063.66 198.065 1074.3 187.434 1074.3 174.32C1074.3 161.206 1063.66 150.575 1050.55 150.575C1037.44 150.575 1026.81 161.206 1026.81 174.32C1026.81 187.434 1037.44 198.065 1050.55 198.065Z" fill="#A8B2BF" fill-opacity="0.1"/>
<path d="M667.4 443.28C696.776 443.28 720.59 419.466 720.59 390.09C720.59 360.714 696.776 336.9 667.4 336.9C638.024 336.9 614.21 360.714 614.21 390.09C614.21 419.466 638.024 443.28 667.4 443.28Z" fill="#A8B2BF" fill-opacity="0.1"/>
<path d="M131.2 122.73C158.356 122.73 180.37 100.716 180.37 73.5599C180.37 46.404 158.356 24.3899 131.2 24.3899C104.044 24.3899 82.03 46.404 82.03 73.5599C82.03 100.716 104.044 122.73 131.2 122.73Z" fill="#F2F2F2" fill-opacity="0.1"/>
</g>
</g>
<defs>
<clipPath id="clip0_76_4">
<rect width="1440" height="700" fill="white"/>
</clipPath>
</defs>
</svg>
