<svg width="579" height="573" viewBox="0 0 579 573" fill="none" xmlns="http://www.w3.org/2000/svg">
<path d="M265.499 544.662C243.849 542.562 226.349 538.912 206.249 532.212C173.999 521.462 142.749 503.762 118.249 482.362C93.0493 460.362 74.4493 437.212 58.3993 408.062C53.0493 398.262 45.7493 382.112 42.6493 373.212C31.7993 341.762 28.1993 321.862 27.6493 290.662C27.3493 272.562 27.7493 264.962 29.7993 251.012C32.5993 231.512 36.9493 214.662 43.7493 196.912C52.0993 175.062 59.0993 161.562 68.9493 148.212C72.0493 144.012 72.6993 143.412 73.9993 143.412C75.3993 143.412 75.4993 143.512 75.4993 145.462C75.4993 146.912 74.7493 149.262 73.0493 152.962C69.0993 161.512 67.7993 165.512 62.8993 184.162C58.4993 200.912 56.8493 215.262 56.8493 236.412C56.8493 250.612 57.0993 254.462 58.7993 266.262C61.0493 282.062 65.0993 297.612 70.8493 312.612C82.5993 343.162 98.0493 367.112 120.199 389.162C138.599 407.462 157.649 421.212 180.249 432.562C195.049 439.962 208.949 445.062 224.999 448.962C228.449 449.762 232.049 450.662 232.999 450.912C240.799 452.862 251.299 454.762 261.499 456.012C264.799 456.412 272.799 456.612 283.249 456.612C297.049 456.612 301.199 456.462 308.499 455.562C340.599 451.562 374.049 440.262 401.249 424.162C412.249 417.612 425.499 408.212 434.249 400.662C441.249 394.662 457.199 378.312 462.749 371.512C481.999 347.862 497.799 316.812 505.249 288.112C506.449 283.412 507.699 278.262 507.949 276.612C508.249 275.012 509.099 269.712 509.949 264.912C511.849 253.462 512.649 241.212 512.299 228.662C512.149 223.162 511.999 214.962 512.049 210.412C512.199 187.762 508.399 168.112 498.949 142.762C497.299 138.412 495.999 134.312 495.999 133.662C495.999 132.562 496.199 132.412 497.749 132.412C499.449 132.412 499.749 132.712 504.199 138.762C510.099 146.712 516.749 157.712 522.749 169.512C538.449 200.262 546.099 226.062 550.299 262.912C551.349 271.862 551.499 297.312 550.599 305.912C548.899 321.562 546.099 337.762 543.299 348.212C540.949 356.962 536.899 369.662 535.149 373.862C534.199 376.262 532.349 380.862 530.999 384.162C525.799 397.212 515.649 416.112 507.049 428.662C486.149 459.262 462.849 482.512 433.249 502.262C421.999 509.762 403.799 519.462 389.899 525.312C365.899 535.462 337.299 542.362 308.499 544.912C300.649 545.612 273.749 545.412 265.499 544.662Z" fill="#020617"/>
<path d="M389.802 308.562C389.802 323.412 377.752 335.412 362.952 335.412C348.102 335.412 336.052 323.412 336.052 308.562C336.052 293.712 348.102 281.712 362.952 281.712C377.752 281.712 389.802 293.712 389.802 308.562Z" fill="#020617"/>
<path d="M300.999 228.712C300.999 259.912 275.699 285.212 244.499 285.212C213.299 285.212 187.999 259.912 187.999 228.712C187.999 197.512 213.299 172.262 244.499 172.262C275.699 172.262 300.999 197.512 300.999 228.712Z" fill="#020617"/>
<path d="M455.252 183.262C455.252 195.762 445.102 205.912 432.602 205.912C420.102 205.912 410.002 195.762 410.002 183.262C410.002 170.762 420.102 160.612 432.602 160.612C445.102 160.612 455.252 170.762 455.252 183.262Z" fill="#020617"/>
<path d="M315.201 100.462C315.201 111.912 305.901 121.212 294.451 121.212C282.951 121.212 273.651 111.912 273.651 100.462C273.651 88.9624 282.951 79.6624 294.451 79.6624C305.901 79.6624 315.201 88.9624 315.201 100.462Z" fill="#020617"/>
<path d="M268.8 571.662C232.1 568.862 200.95 560.862 169.2 546.112C143.95 534.362 122.1 520.612 100.9 503.062C94.8 498.012 73.85 477.012 68.55 470.662C59.9 460.262 50 446.662 43.8 436.712C25.8 407.912 12.55 375.012 5.3 340.912C1.35 322.362 0 308.812 0 287.912C0 260.812 1.9 244.712 8 219.712C10.8 208.162 16.85 188.962 20.15 181.162C28.4 161.712 36.8 145.662 45.9 132.062C58.6 113.112 68.7 100.762 84 85.3623C94.45 74.8623 102.75 67.6622 114.75 58.6623C137.8 41.3623 156.95 30.6123 183.8 19.9123C193.4 16.0623 208.45 11.0623 216.15 9.16225C242.3 2.71225 259.2 0.462252 283.75 0.0622523C314.7 -0.437748 335.05 2.01225 364 9.66225C404.05 20.3123 443.25 41.0123 477 69.4123C486.2 77.1623 505.5 96.5623 513.05 105.662C534.15 131.112 548.6 156.162 560.8 188.262C579.75 238.262 583.8 289.362 573 341.762C569.8 357.212 564.3 375.312 558 390.962C546.8 418.862 527.9 449.712 508.1 472.412C498.1 483.862 479.7 501.362 467.75 510.762C448.45 525.912 422.45 540.962 399 550.662C371 562.212 346.7 568.162 314 571.412C305.3 572.312 278.9 572.462 268.8 571.662ZM307.5 543.912C336.3 541.362 364.9 534.462 388.9 524.312C402.8 518.462 421 508.762 432.25 501.262C461.85 481.512 485.15 458.262 506.05 427.662C514.65 415.112 524.8 396.212 530 383.162C531.35 379.862 533.2 375.262 534.15 372.862C535.9 368.662 539.95 355.962 542.3 347.212C545.1 336.762 547.9 320.412 549.55 304.912C550.45 296.462 550.3 272.812 549.3 263.912C545.8 233.412 539.9 210.462 529.3 186.162C525.2 176.862 517.85 162.612 512.5 153.762C507.15 144.862 498.85 133.412 497.75 133.412C497.35 133.412 497 133.512 497 133.662C497 133.762 498.3 137.412 499.95 141.762C505.4 156.362 508.65 167.962 510.75 180.162C512.75 191.862 513.15 199.462 513 220.662C513 223.562 511.2 233.912 509.45 241.062C499.6 281.612 478.25 316.012 446.7 342.212C416.5 367.312 377.1 383.162 336.8 386.412C328.4 387.062 307.35 387.062 300 386.362C271.7 383.762 243.05 374.312 219.7 359.912C193.8 343.962 174.35 325.462 158.65 301.912C146.4 283.512 137.2 260.912 132.75 238.312C128.65 217.462 128.05 199.162 130.8 177.662C133.3 158.312 139 139.412 147.7 121.912C152.9 111.462 161.25 98.5123 167.95 90.4123C186.15 68.5123 203.7 54.2122 227.25 42.0623C231.65 39.8123 234.95 37.9123 234.6 37.9123C233.05 37.9123 219.75 42.7123 212.6 45.9623C182.2 59.5623 159 77.1623 136.25 103.912C128.7 112.812 119.3 126.662 113.25 137.862C100.35 161.662 92.5 185.962 89.2 212.162C87.95 221.962 87.95 246.562 89.15 257.162C93.05 290.862 104 322.712 121.4 351.162C135.4 374.012 150.65 392.462 169.5 409.362C176.4 415.562 191.85 427.212 200.65 432.862C212.55 440.512 227.2 447.812 236.1 450.462C238.8 451.262 239.5 451.662 239.5 452.412C239.5 452.962 239.3 453.412 239 453.412C238.4 453.412 234.3 452.462 232.25 451.862C231.45 451.662 229.95 451.362 229 451.212C223.05 450.412 202 443.762 191.85 439.412C140.85 417.762 98.95 377.762 76.5 329.412C67 308.962 60.8 288.262 57.8 267.262C56.05 255.362 55.85 251.612 55.85 236.662C55.8 214.712 57.5 199.862 61.9 183.162C66.9 164.212 68.1 160.512 72.05 151.962C74.4 146.712 75.05 144.412 74 144.412C73.35 144.412 67.3 152.662 63.05 159.312C57.25 168.412 50.95 181.662 44.75 197.912C37.95 215.662 33.6 232.512 30.8 252.012C28.75 265.862 28.35 273.612 28.65 290.662C29.2 320.912 32.95 341.162 43.65 372.212C46.75 381.112 54.05 397.262 59.4 407.062C75.45 436.212 94.05 459.362 119.25 481.362C143.75 502.762 175 520.462 207.25 531.212C227.35 537.912 244.85 541.562 266.5 543.662C274.75 544.412 299.65 544.612 307.5 543.912ZM388.55 308.562C388.55 294.412 377.05 282.962 362.95 282.962C348.8 282.962 337.35 294.412 337.35 308.562C337.35 322.712 348.8 334.162 362.95 334.162C377.05 334.162 388.55 322.712 388.55 308.562ZM176.5 323.162C176.5 323.012 176.4 322.912 176.25 322.912C176.1 322.912 176 323.012 176 323.162C176 323.312 176.1 323.412 176.25 323.412C176.4 323.412 176.5 323.312 176.5 323.162ZM455.25 275.912C455.25 270.012 450.45 265.262 444.6 265.262C438.7 265.262 433.95 270.012 433.95 275.912C433.95 281.812 438.7 286.562 444.6 286.562C450.45 286.562 455.25 281.812 455.25 275.912ZM299.7 228.762C299.7 198.262 275 173.512 244.5 173.512C214 173.512 189.25 198.262 189.25 228.762C189.25 259.212 214 283.962 244.5 283.962C275 283.962 299.7 259.212 299.7 228.762ZM454 183.262C454 171.512 444.45 161.912 432.65 161.912C420.85 161.912 411.3 171.512 411.3 183.262C411.3 195.062 420.85 204.612 432.65 204.612C444.45 204.612 454 195.062 454 183.262ZM205.9 118.412C205.9 110.412 199.45 103.962 191.45 103.962C183.45 103.962 177 110.412 177 118.412C177 126.412 183.45 132.862 191.45 132.862C199.45 132.862 205.9 126.412 205.9 118.412ZM313.95 100.412C313.95 89.6623 305.2 80.9623 294.45 80.9623C283.65 80.9623 274.95 89.6623 274.95 100.412C274.95 111.212 283.65 119.912 294.45 119.912C305.2 119.912 313.95 111.212 313.95 100.412ZM392.75 92.7123C392.75 86.6623 387.85 81.7123 381.8 81.7123C375.7 81.7123 370.8 86.6623 370.8 92.7123C370.8 98.7623 375.7 103.712 381.8 103.712C387.85 103.712 392.75 98.7623 392.75 92.7123ZM236 37.6623C236 37.5122 235.9 37.4123 235.75 37.4123C235.6 37.4123 235.5 37.5122 235.5 37.6623C235.5 37.8123 235.6 37.9123 235.75 37.9123C235.9 37.9123 236 37.8123 236 37.6623Z" fill="#F1F5F9"/>
<path d="M265.75 457.412C255.8 456.712 236.9 453.612 238.05 452.912C238.4 452.662 237.35 452.112 235.2 451.462C226.2 448.812 211.6 441.562 199.65 433.862C190.85 428.212 175.4 416.562 168.5 410.362C152.3 395.862 139.4 380.962 127.15 362.662C116.25 346.362 110 334.562 102.75 316.662C95.6 298.912 90.55 278.812 88.15 258.162C86.95 247.512 86.95 221.012 88.2 211.162C91.5 184.912 99.35 160.662 112.25 136.862C126.85 109.912 149.2 84.4122 174 66.4622C187.85 56.4122 204.85 47.1622 220.65 41.1122C227.85 38.3622 249.95 31.9122 252.2 31.9122C252.65 31.9122 253 32.1622 253 32.4122C253 32.7122 252.7 32.9122 252.3 32.9122C250.65 32.9122 238.6 37.8622 230.8 41.7622C205.95 54.1622 187.7 68.8122 168.95 91.4122C159.45 102.812 149.4 119.862 143.35 134.662C132.25 162.012 127.95 193.262 131.3 222.312C134.5 250.012 144.85 278.662 159.65 300.912C163.15 306.162 171.8 317.562 174.85 320.962C175.75 321.962 176.3 322.912 176.1 323.112C175.9 323.312 176 323.412 176.25 323.362C176.55 323.262 178.8 325.312 181.25 327.862C191.9 338.812 205.55 349.612 220.7 358.912C244.05 373.312 272.7 382.762 301 385.362C308.35 386.062 327.45 386.062 335.8 385.412C368.25 382.812 400.55 371.862 428.25 354.162C445.1 343.362 463.2 326.562 475.55 310.162C485.8 296.612 495.25 279.562 500.9 264.362C506.7 248.812 509.45 237.962 512.35 219.162C513 214.862 513.45 219.312 513.45 230.562C513.5 247.962 512.75 255.962 509.2 276.162C505.35 297.962 495.05 324.312 481.45 347.162C472.05 362.862 463.35 373.962 449.25 388.212C438.15 399.412 433.5 403.512 423.25 411.112C390.3 435.662 350.4 451.612 309.75 456.462C300.25 457.612 275.65 458.162 265.75 457.412Z" fill="#64748B"/>
<path d="M456.5 275.862C456.5 282.462 451.15 287.812 444.6 287.812C438 287.812 432.65 282.462 432.65 275.862C432.65 269.312 438 263.962 444.6 263.962C451.15 263.962 456.5 269.312 456.5 275.862Z" fill="#64748B"/>
<path d="M207.15 118.412C207.15 127.112 200.15 134.112 191.45 134.112C182.8 134.112 175.75 127.112 175.75 118.412C175.75 109.762 182.8 102.712 191.45 102.712C200.15 102.712 207.15 109.762 207.15 118.412Z" fill="#64748B"/>
<path d="M394 92.7122C394 99.5122 388.5 104.962 381.75 104.962C375 104.962 369.5 99.5122 369.5 92.7122C369.5 85.9622 375 80.4622 381.75 80.4622C388.5 80.4622 394 85.9622 394 92.7122Z" fill="#64748B"/>
</svg>
