<svg width="1440" height="1440" viewBox="0 0 1440 1440" fill="none"
    xmlns="http://www.w3.org/2000/svg">
    <g opacity=".6">
        <g clip-path="url(#clip0_51_563)">
            <path d="M692.1 206.1L933.3 234.81M834.3 792L657.9 663.3L468 594L278.1 484.2L36 539.1M36 539.1L265.5 687.6L113.85 791.55L36 539.1ZM36 539.1L-177.3 443.7L91.8 343.8L-27.9 206.1L113.85 71.55L-62.1 -56.7" stroke="#292F40" stroke-width="0.5"/>
            <path d="M-27.9 206.1L213.3 234.9L351 343.8L542.7 443.7L277.65 483.75L91.35 343.35M333 814.5L265.5 687.6" stroke="#292F40" stroke-width="0.5"/>
            <path d="M468 594L520.2 757.8L657.9 663.3L756 539.1L542.7 443.7L468 594ZM468 594L265.5 687.6L278.1 484.2L351 343.8L485.1 242.1L692.1 206.1L519.75 37.35L333 94.5L265.5 -32.4L113.85 71.55L213.3 234.9L91.8 343.8L36 539.1L-62.1 663.3L114.3 792" stroke="#292F40" stroke-width="0.5"/>
            <path d="M468 -126L520.65 38.25L657.9 -56.7M542.7 443.7L485.1 242.1M485.1 242.1L213.3 234.9L333 94.5M485.1 242.1L811.8 343.8M351 343.8H91.8" stroke="#292F40" stroke-width="0.5"/>
            <path d="M-199.8 37.8L113.85 71.55L333 94.5L485.1 242.1L519.75 37.35M519.75 37.35L834.3 72L692.1 206.1L811.8 343.8L542.7 443.7L657.9 663.3M519.75 37.35L265.5 -32.4M520.2 757.8L265.5 687.6M36 -180.9L114.3 72M91.8 343.8L-234.9 242.1" stroke="#292F40" stroke-width="0.5"/>
            <path d="M692.1 210.6C694.585 210.6 696.6 208.585 696.6 206.1C696.6 203.615 694.585 201.6 692.1 201.6C689.615 201.6 687.6 203.615 687.6 206.1C687.6 208.585 689.615 210.6 692.1 210.6Z" fill="#68788C"/>
            <path d="M485.1 246.6C487.585 246.6 489.6 244.585 489.6 242.1C489.6 239.615 487.585 237.6 485.1 237.6C482.615 237.6 480.6 239.615 480.6 242.1C480.6 244.585 482.615 246.6 485.1 246.6Z" fill="#68788C"/>
            <path d="M542.7 448.2C545.185 448.2 547.2 446.185 547.2 443.7C547.2 441.215 545.185 439.2 542.7 439.2C540.215 439.2 538.2 441.215 538.2 443.7C538.2 446.185 540.215 448.2 542.7 448.2Z" fill="#68788C"/>
            <path d="M657.9 667.8C660.385 667.8 662.4 665.785 662.4 663.3C662.4 660.815 660.385 658.8 657.9 658.8C655.415 658.8 653.4 660.815 653.4 663.3C653.4 665.785 655.415 667.8 657.9 667.8Z" fill="#68788C"/>
            <path d="M468 598.5C470.485 598.5 472.5 596.485 472.5 594C472.5 591.515 470.485 589.5 468 589.5C465.515 589.5 463.5 591.515 463.5 594C463.5 596.485 465.515 598.5 468 598.5Z" fill="#68788C"/>
            <path d="M278.1 488.7C280.585 488.7 282.6 486.685 282.6 484.2C282.6 481.715 280.585 479.7 278.1 479.7C275.615 479.7 273.6 481.715 273.6 484.2C273.6 486.685 275.615 488.7 278.1 488.7Z" fill="#68788C"/>
            <path d="M265.5 692.1C267.985 692.1 270 690.085 270 687.6C270 685.115 267.985 683.1 265.5 683.1C263.015 683.1 261 685.115 261 687.6C261 690.085 263.015 692.1 265.5 692.1Z" fill="#68788C"/>
            <path d="M36 543.6C38.4853 543.6 40.5 541.585 40.5 539.1C40.5 536.615 38.4853 534.6 36 534.6C33.5147 534.6 31.5 536.615 31.5 539.1C31.5 541.585 33.5147 543.6 36 543.6Z" fill="#68788C"/>
            <path d="M91.8 348.3C94.2853 348.3 96.3 346.285 96.3 343.8C96.3 341.315 94.2853 339.3 91.8 339.3C89.3147 339.3 87.3 341.315 87.3 343.8C87.3 346.285 89.3147 348.3 91.8 348.3Z" fill="#68788C"/>
            <path d="M114.3 76.5C116.785 76.5 118.8 74.4853 118.8 72C118.8 69.5147 116.785 67.5 114.3 67.5C111.815 67.5 109.8 69.5147 109.8 72C109.8 74.4853 111.815 76.5 114.3 76.5Z" fill="#68788C"/>
            <path d="M333 99C335.485 99 337.5 96.9853 337.5 94.5C337.5 92.0147 335.485 90 333 90C330.515 90 328.5 92.0147 328.5 94.5C328.5 96.9853 330.515 99 333 99Z" fill="#68788C"/>
            <path d="M520.2 42.3C522.685 42.3 524.7 40.2853 524.7 37.8C524.7 35.3147 522.685 33.3 520.2 33.3C517.715 33.3 515.7 35.3147 515.7 37.8C515.7 40.2853 517.715 42.3 520.2 42.3Z" fill="#68788C"/>
            <path d="M213.3 239.4C215.785 239.4 217.8 237.385 217.8 234.9C217.8 232.415 215.785 230.4 213.3 230.4C210.815 230.4 208.8 232.415 208.8 234.9C208.8 237.385 210.815 239.4 213.3 239.4Z" fill="#68788C"/>
            <path d="M351 348.3C353.485 348.3 355.5 346.285 355.5 343.8C355.5 341.315 353.485 339.3 351 339.3C348.515 339.3 346.5 341.315 346.5 343.8C346.5 346.285 348.515 348.3 351 348.3Z" fill="#68788C"/>
        </g>
        <g clip-path="url(#clip1_51_563)">
            <path d="M692.1 926.1L933.3 954.81M834.3 1512L657.9 1383.3L468 1314L278.1 1204.2L36 1259.1M36 1259.1L265.5 1407.6L113.85 1511.55L36 1259.1ZM36 1259.1L-177.3 1163.7L91.8 1063.8L-27.9 926.1L113.85 791.55L-62.1 663.3" stroke="#292F40" stroke-width="0.5"/>
            <path d="M-27.9 926.1L213.3 954.9L351 1063.8L542.7 1163.7L277.65 1203.75L91.35 1063.35M333 1534.5L265.5 1407.6" stroke="#292F40" stroke-width="0.5"/>
            <path d="M468 1314L520.2 1477.8L657.9 1383.3L756 1259.1L542.7 1163.7L468 1314ZM468 1314L265.5 1407.6L278.1 1204.2L351 1063.8L485.1 962.1L692.1 926.1L519.75 757.35L333 814.5L265.5 687.6L113.85 791.55L213.3 954.9L91.8 1063.8L36 1259.1L-62.1 1383.3L114.3 1512" stroke="#292F40" stroke-width="0.5"/>
            <path d="M468 594L520.65 758.25L657.9 663.3M542.7 1163.7L485.1 962.1M485.1 962.1L213.3 954.9L333 814.5M485.1 962.1L811.8 1063.8M351 1063.8H91.8" stroke="#292F40" stroke-width="0.5"/>
            <path d="M-199.8 757.8L113.85 791.55L333 814.5L485.1 962.1L519.75 757.35M519.75 757.35L834.3 792L692.1 926.1L811.8 1063.8L542.7 1163.7L657.9 1383.3M519.75 757.35L265.5 687.6M520.2 1477.8L265.5 1407.6M36 539.1L114.3 792M91.8 1063.8L-234.9 962.1" stroke="#292F40" stroke-width="0.5"/>
            <path d="M692.1 930.6C694.585 930.6 696.6 928.585 696.6 926.1C696.6 923.615 694.585 921.6 692.1 921.6C689.615 921.6 687.6 923.615 687.6 926.1C687.6 928.585 689.615 930.6 692.1 930.6Z" fill="#68788C"/>
            <path d="M485.1 966.6C487.585 966.6 489.6 964.585 489.6 962.1C489.6 959.615 487.585 957.6 485.1 957.6C482.615 957.6 480.6 959.615 480.6 962.1C480.6 964.585 482.615 966.6 485.1 966.6Z" fill="#68788C"/>
            <path d="M542.7 1168.2C545.185 1168.2 547.2 1166.19 547.2 1163.7C547.2 1161.21 545.185 1159.2 542.7 1159.2C540.215 1159.2 538.2 1161.21 538.2 1163.7C538.2 1166.19 540.215 1168.2 542.7 1168.2Z" fill="#68788C"/>
            <path d="M657.9 1387.8C660.385 1387.8 662.4 1385.79 662.4 1383.3C662.4 1380.81 660.385 1378.8 657.9 1378.8C655.415 1378.8 653.4 1380.81 653.4 1383.3C653.4 1385.79 655.415 1387.8 657.9 1387.8Z" fill="#68788C"/>
            <path d="M468 1318.5C470.485 1318.5 472.5 1316.49 472.5 1314C472.5 1311.51 470.485 1309.5 468 1309.5C465.515 1309.5 463.5 1311.51 463.5 1314C463.5 1316.49 465.515 1318.5 468 1318.5Z" fill="#68788C"/>
            <path d="M278.1 1208.7C280.585 1208.7 282.6 1206.69 282.6 1204.2C282.6 1201.71 280.585 1199.7 278.1 1199.7C275.615 1199.7 273.6 1201.71 273.6 1204.2C273.6 1206.69 275.615 1208.7 278.1 1208.7Z" fill="#68788C"/>
            <path d="M265.5 1412.1C267.985 1412.1 270 1410.09 270 1407.6C270 1405.11 267.985 1403.1 265.5 1403.1C263.015 1403.1 261 1405.11 261 1407.6C261 1410.09 263.015 1412.1 265.5 1412.1Z" fill="#68788C"/>
            <path d="M36 1263.6C38.4853 1263.6 40.5 1261.59 40.5 1259.1C40.5 1256.61 38.4853 1254.6 36 1254.6C33.5147 1254.6 31.5 1256.61 31.5 1259.1C31.5 1261.59 33.5147 1263.6 36 1263.6Z" fill="#68788C"/>
            <path d="M91.8 1068.3C94.2853 1068.3 96.3 1066.29 96.3 1063.8C96.3 1061.31 94.2853 1059.3 91.8 1059.3C89.3147 1059.3 87.3 1061.31 87.3 1063.8C87.3 1066.29 89.3147 1068.3 91.8 1068.3Z" fill="#68788C"/>
            <path d="M114.3 796.5C116.785 796.5 118.8 794.485 118.8 792C118.8 789.515 116.785 787.5 114.3 787.5C111.815 787.5 109.8 789.515 109.8 792C109.8 794.485 111.815 796.5 114.3 796.5Z" fill="#68788C"/>
            <path d="M333 819C335.485 819 337.5 816.985 337.5 814.5C337.5 812.015 335.485 810 333 810C330.515 810 328.5 812.015 328.5 814.5C328.5 816.985 330.515 819 333 819Z" fill="#68788C"/>
            <path d="M520.2 762.3C522.685 762.3 524.7 760.285 524.7 757.8C524.7 755.315 522.685 753.3 520.2 753.3C517.715 753.3 515.7 755.315 515.7 757.8C515.7 760.285 517.715 762.3 520.2 762.3Z" fill="#68788C"/>
            <path d="M213.3 959.4C215.785 959.4 217.8 957.385 217.8 954.9C217.8 952.415 215.785 950.4 213.3 950.4C210.815 950.4 208.8 952.415 208.8 954.9C208.8 957.385 210.815 959.4 213.3 959.4Z" fill="#68788C"/>
            <path d="M351 1068.3C353.485 1068.3 355.5 1066.29 355.5 1063.8C355.5 1061.31 353.485 1059.3 351 1059.3C348.515 1059.3 346.5 1061.31 346.5 1063.8C346.5 1066.29 348.515 1068.3 351 1068.3Z" fill="#68788C"/>
        </g>
        <g clip-path="url(#clip2_51_563)">
            <path d="M1412.1 206.1L1653.3 234.81M1554.3 792L1377.9 663.3L1188 594L998.1 484.2L756 539.1M756 539.1L985.5 687.6L833.85 791.55L756 539.1ZM756 539.1L542.7 443.7L811.8 343.8L692.1 206.1L833.85 71.55L657.9 -56.7" stroke="#292F40" stroke-width="0.5"/>
            <path d="M692.1 206.1L933.3 234.9L1071 343.8L1262.7 443.7L997.65 483.75L811.35 343.35M1053 814.5L985.5 687.6" stroke="#292F40" stroke-width="0.5"/>
            <path d="M1188 594L1240.2 757.8L1377.9 663.3L1476 539.1L1262.7 443.7L1188 594ZM1188 594L985.5 687.6L998.1 484.2L1071 343.8L1205.1 242.1L1412.1 206.1L1239.75 37.35L1053 94.5L985.5 -32.4L833.85 71.55L933.3 234.9L811.8 343.8L756 539.1L657.9 663.3L834.3 792" stroke="#292F40" stroke-width="0.5"/>
            <path d="M1188 -126L1240.65 38.25L1377.9 -56.7M1262.7 443.7L1205.1 242.1M1205.1 242.1L933.3 234.9L1053 94.5M1205.1 242.1L1531.8 343.8M1071 343.8H811.8" stroke="#292F40" stroke-width="0.5"/>
            <path d="M520.2 37.8L833.85 71.55L1053 94.5L1205.1 242.1L1239.75 37.35M1239.75 37.35L1554.3 72L1412.1 206.1L1531.8 343.8L1262.7 443.7L1377.9 663.3M1239.75 37.35L985.5 -32.4M1240.2 757.8L985.5 687.6M756 -180.9L834.3 72M811.8 343.8L485.1 242.1" stroke="#292F40" stroke-width="0.5"/>
            <path d="M1412.1 210.6C1414.59 210.6 1416.6 208.585 1416.6 206.1C1416.6 203.615 1414.59 201.6 1412.1 201.6C1409.61 201.6 1407.6 203.615 1407.6 206.1C1407.6 208.585 1409.61 210.6 1412.1 210.6Z" fill="#68788C"/>
            <path d="M1205.1 246.6C1207.59 246.6 1209.6 244.585 1209.6 242.1C1209.6 239.615 1207.59 237.6 1205.1 237.6C1202.61 237.6 1200.6 239.615 1200.6 242.1C1200.6 244.585 1202.61 246.6 1205.1 246.6Z" fill="#68788C"/>
            <path d="M1262.7 448.2C1265.19 448.2 1267.2 446.185 1267.2 443.7C1267.2 441.215 1265.19 439.2 1262.7 439.2C1260.21 439.2 1258.2 441.215 1258.2 443.7C1258.2 446.185 1260.21 448.2 1262.7 448.2Z" fill="#68788C"/>
            <path d="M1377.9 667.8C1380.39 667.8 1382.4 665.785 1382.4 663.3C1382.4 660.815 1380.39 658.8 1377.9 658.8C1375.41 658.8 1373.4 660.815 1373.4 663.3C1373.4 665.785 1375.41 667.8 1377.9 667.8Z" fill="#68788C"/>
            <path d="M1188 598.5C1190.49 598.5 1192.5 596.485 1192.5 594C1192.5 591.515 1190.49 589.5 1188 589.5C1185.51 589.5 1183.5 591.515 1183.5 594C1183.5 596.485 1185.51 598.5 1188 598.5Z" fill="#68788C"/>
            <path d="M998.1 488.7C1000.59 488.7 1002.6 486.685 1002.6 484.2C1002.6 481.715 1000.59 479.7 998.1 479.7C995.615 479.7 993.6 481.715 993.6 484.2C993.6 486.685 995.615 488.7 998.1 488.7Z" fill="#68788C"/>
            <path d="M985.5 692.1C987.985 692.1 990 690.085 990 687.6C990 685.115 987.985 683.1 985.5 683.1C983.015 683.1 981 685.115 981 687.6C981 690.085 983.015 692.1 985.5 692.1Z" fill="#68788C"/>
            <path d="M756 543.6C758.485 543.6 760.5 541.585 760.5 539.1C760.5 536.615 758.485 534.6 756 534.6C753.515 534.6 751.5 536.615 751.5 539.1C751.5 541.585 753.515 543.6 756 543.6Z" fill="#68788C"/>
            <path d="M811.8 348.3C814.285 348.3 816.3 346.285 816.3 343.8C816.3 341.315 814.285 339.3 811.8 339.3C809.315 339.3 807.3 341.315 807.3 343.8C807.3 346.285 809.315 348.3 811.8 348.3Z" fill="#68788C"/>
            <path d="M834.3 76.5C836.785 76.5 838.8 74.4853 838.8 72C838.8 69.5147 836.785 67.5 834.3 67.5C831.815 67.5 829.8 69.5147 829.8 72C829.8 74.4853 831.815 76.5 834.3 76.5Z" fill="#68788C"/>
            <path d="M1053 99C1055.49 99 1057.5 96.9853 1057.5 94.5C1057.5 92.0147 1055.49 90 1053 90C1050.51 90 1048.5 92.0147 1048.5 94.5C1048.5 96.9853 1050.51 99 1053 99Z" fill="#68788C"/>
            <path d="M1240.2 42.3C1242.69 42.3 1244.7 40.2853 1244.7 37.8C1244.7 35.3147 1242.69 33.3 1240.2 33.3C1237.71 33.3 1235.7 35.3147 1235.7 37.8C1235.7 40.2853 1237.71 42.3 1240.2 42.3Z" fill="#68788C"/>
            <path d="M933.3 239.4C935.785 239.4 937.8 237.385 937.8 234.9C937.8 232.415 935.785 230.4 933.3 230.4C930.815 230.4 928.8 232.415 928.8 234.9C928.8 237.385 930.815 239.4 933.3 239.4Z" fill="#68788C"/>
            <path d="M1071 348.3C1073.49 348.3 1075.5 346.285 1075.5 343.8C1075.5 341.315 1073.49 339.3 1071 339.3C1068.51 339.3 1066.5 341.315 1066.5 343.8C1066.5 346.285 1068.51 348.3 1071 348.3Z" fill="#68788C"/>
        </g>
        <g clip-path="url(#clip3_51_563)">
            <path d="M1412.1 926.1L1653.3 954.81M1554.3 1512L1377.9 1383.3L1188 1314L998.1 1204.2L756 1259.1M756 1259.1L985.5 1407.6L833.85 1511.55L756 1259.1ZM756 1259.1L542.7 1163.7L811.8 1063.8L692.1 926.1L833.85 791.55L657.9 663.3" stroke="#292F40" stroke-width="0.5"/>
            <path d="M692.1 926.1L933.3 954.9L1071 1063.8L1262.7 1163.7L997.65 1203.75L811.35 1063.35M1053 1534.5L985.5 1407.6" stroke="#292F40" stroke-width="0.5"/>
            <path d="M1188 1314L1240.2 1477.8L1377.9 1383.3L1476 1259.1L1262.7 1163.7L1188 1314ZM1188 1314L985.5 1407.6L998.1 1204.2L1071 1063.8L1205.1 962.1L1412.1 926.1L1239.75 757.35L1053 814.5L985.5 687.6L833.85 791.55L933.3 954.9L811.8 1063.8L756 1259.1L657.9 1383.3L834.3 1512" stroke="#292F40" stroke-width="0.5"/>
            <path d="M1188 594L1240.65 758.25L1377.9 663.3M1262.7 1163.7L1205.1 962.1M1205.1 962.1L933.3 954.9L1053 814.5M1205.1 962.1L1531.8 1063.8M1071 1063.8H811.8" stroke="#292F40" stroke-width="0.5"/>
            <path d="M520.2 757.8L833.85 791.55L1053 814.5L1205.1 962.1L1239.75 757.35M1239.75 757.35L1554.3 792L1412.1 926.1L1531.8 1063.8L1262.7 1163.7L1377.9 1383.3M1239.75 757.35L985.5 687.6M1240.2 1477.8L985.5 1407.6M756 539.1L834.3 792M811.8 1063.8L485.1 962.1" stroke="#292F40" stroke-width="0.5"/>
            <path d="M1412.1 930.6C1414.59 930.6 1416.6 928.585 1416.6 926.1C1416.6 923.615 1414.59 921.6 1412.1 921.6C1409.61 921.6 1407.6 923.615 1407.6 926.1C1407.6 928.585 1409.61 930.6 1412.1 930.6Z" fill="#68788C"/>
            <path d="M1205.1 966.6C1207.59 966.6 1209.6 964.585 1209.6 962.1C1209.6 959.615 1207.59 957.6 1205.1 957.6C1202.61 957.6 1200.6 959.615 1200.6 962.1C1200.6 964.585 1202.61 966.6 1205.1 966.6Z" fill="#68788C"/>
            <path d="M1262.7 1168.2C1265.19 1168.2 1267.2 1166.19 1267.2 1163.7C1267.2 1161.21 1265.19 1159.2 1262.7 1159.2C1260.21 1159.2 1258.2 1161.21 1258.2 1163.7C1258.2 1166.19 1260.21 1168.2 1262.7 1168.2Z" fill="#68788C"/>
            <path d="M1377.9 1387.8C1380.39 1387.8 1382.4 1385.79 1382.4 1383.3C1382.4 1380.81 1380.39 1378.8 1377.9 1378.8C1375.41 1378.8 1373.4 1380.81 1373.4 1383.3C1373.4 1385.79 1375.41 1387.8 1377.9 1387.8Z" fill="#68788C"/>
            <path d="M1188 1318.5C1190.49 1318.5 1192.5 1316.49 1192.5 1314C1192.5 1311.51 1190.49 1309.5 1188 1309.5C1185.51 1309.5 1183.5 1311.51 1183.5 1314C1183.5 1316.49 1185.51 1318.5 1188 1318.5Z" fill="#68788C"/>
            <path d="M998.1 1208.7C1000.59 1208.7 1002.6 1206.69 1002.6 1204.2C1002.6 1201.71 1000.59 1199.7 998.1 1199.7C995.615 1199.7 993.6 1201.71 993.6 1204.2C993.6 1206.69 995.615 1208.7 998.1 1208.7Z" fill="#68788C"/>
            <path d="M985.5 1412.1C987.985 1412.1 990 1410.09 990 1407.6C990 1405.11 987.985 1403.1 985.5 1403.1C983.015 1403.1 981 1405.11 981 1407.6C981 1410.09 983.015 1412.1 985.5 1412.1Z" fill="#68788C"/>
            <path d="M756 1263.6C758.485 1263.6 760.5 1261.59 760.5 1259.1C760.5 1256.61 758.485 1254.6 756 1254.6C753.515 1254.6 751.5 1256.61 751.5 1259.1C751.5 1261.59 753.515 1263.6 756 1263.6Z" fill="#68788C"/>
            <path d="M811.8 1068.3C814.285 1068.3 816.3 1066.29 816.3 1063.8C816.3 1061.31 814.285 1059.3 811.8 1059.3C809.315 1059.3 807.3 1061.31 807.3 1063.8C807.3 1066.29 809.315 1068.3 811.8 1068.3Z" fill="#68788C"/>
            <path d="M834.3 796.5C836.785 796.5 838.8 794.485 838.8 792C838.8 789.515 836.785 787.5 834.3 787.5C831.815 787.5 829.8 789.515 829.8 792C829.8 794.485 831.815 796.5 834.3 796.5Z" fill="#68788C"/>
            <path d="M1053 819C1055.49 819 1057.5 816.985 1057.5 814.5C1057.5 812.015 1055.49 810 1053 810C1050.51 810 1048.5 812.015 1048.5 814.5C1048.5 816.985 1050.51 819 1053 819Z" fill="#68788C"/>
            <path d="M1240.2 762.3C1242.69 762.3 1244.7 760.285 1244.7 757.8C1244.7 755.315 1242.69 753.3 1240.2 753.3C1237.71 753.3 1235.7 755.315 1235.7 757.8C1235.7 760.285 1237.71 762.3 1240.2 762.3Z" fill="#68788C"/>
            <path d="M933.3 959.4C935.785 959.4 937.8 957.385 937.8 954.9C937.8 952.415 935.785 950.4 933.3 950.4C930.815 950.4 928.8 952.415 928.8 954.9C928.8 957.385 930.815 959.4 933.3 959.4Z" fill="#68788C"/>
            <path d="M1071 1068.3C1073.49 1068.3 1075.5 1066.29 1075.5 1063.8C1075.5 1061.31 1073.49 1059.3 1071 1059.3C1068.51 1059.3 1066.5 1061.31 1066.5 1063.8C1066.5 1066.29 1068.51 1068.3 1071 1068.3Z" fill="#68788C"/>
        </g>
    </g>
    <defs>
        <clipPath id="clip0_51_563">
            <rect width="720" height="720" fill="white"/>
        </clipPath>
        <clipPath id="clip1_51_563">
            <rect width="720" height="720" fill="white" transform="translate(0 720)"/>
        </clipPath>
        <clipPath id="clip2_51_563">
            <rect width="720" height="720" fill="white" transform="translate(720)"/>
        </clipPath>
        <clipPath id="clip3_51_563">
            <rect width="720" height="720" fill="white" transform="translate(720 720)"/>
        </clipPath>
    </defs>
</svg>
