<svg width="64" height="64" viewBox="0 0 64 64" fill="none" xmlns="http://www.w3.org/2000/svg">
<g id="Icon">
<path id="Vector" d="M48 14.0001C48.0006 14.8729 47.8107 15.7354 47.4436 16.5274C47.0765 17.3193 46.541 18.0216 45.8745 18.5853C45.208 19.149 44.4265 19.5604 43.5846 19.7909C42.7427 20.0215 41.8607 20.0655 41 19.9201L38.508 24.4081C40.428 26.0561 41.72 28.4241 41.96 31.0961L44.6 31.3881C45.217 30.1143 46.2645 29.0997 47.5573 28.5235C48.85 27.9473 50.3048 27.8467 51.6646 28.2394C53.0244 28.6322 54.2015 29.4929 54.9881 30.6696C55.7746 31.8463 56.1198 33.2631 55.9627 34.6697C55.8056 36.0763 55.1564 37.3821 54.1297 38.3563C53.103 39.3305 51.7649 39.9104 50.352 39.9935C48.9391 40.0766 47.5423 39.6575 46.4085 38.8104C45.2747 37.9632 44.4769 36.7426 44.156 35.3641L41.52 35.0721C40.7588 37.432 39.1479 39.4249 37 40.6641L38.108 44.0001C39.5231 44.0262 40.8834 44.5518 41.9485 45.4839C43.0135 46.4159 43.7148 47.6945 43.9284 49.0937C44.142 50.4928 43.8541 51.9224 43.1156 53.1298C42.3771 54.3371 41.2355 55.2446 39.8927 55.6917C38.5498 56.1389 37.0921 56.0969 35.7772 55.5733C34.4623 55.0496 33.3749 54.078 32.7071 52.8302C32.0392 51.5823 31.834 50.1385 32.1277 48.754C32.4214 47.3695 33.1951 46.1333 34.312 45.2641L33.2 41.9281C31.5656 42.1261 29.9076 41.9176 28.3732 41.321C26.8387 40.7244 25.4753 39.7581 24.404 38.5081L19.916 41.0001C19.972 41.3254 20 41.6587 20 42.0001C20.0002 43.3723 19.5301 44.7031 18.6679 45.7707C17.8058 46.8383 16.6038 47.5781 15.2622 47.8668C13.9207 48.1555 12.5208 47.9756 11.2958 47.3571C10.0708 46.7387 9.09489 45.719 8.53066 44.4681C7.96644 43.2173 7.84803 41.8108 8.19518 40.4832C8.54234 39.1556 9.33407 37.9871 10.4384 37.1725C11.5427 36.358 12.8929 35.9466 14.2638 36.0069C15.6347 36.0672 16.9435 36.5956 17.972 37.5041L22.46 35.0121C22.012 33.591 21.8873 32.0877 22.0949 30.6123C22.3026 29.1368 22.8373 27.7263 23.66 26.4841L20.588 23.4161C19.3108 24.0261 17.8591 24.165 16.4894 23.8082C15.1197 23.4514 13.9203 22.6219 13.103 21.4662C12.2858 20.3106 11.9035 18.9032 12.0236 17.4929C12.1437 16.0826 12.7584 14.7602 13.7593 13.7593C14.7601 12.7585 16.0826 12.1437 17.4929 12.0236C18.9032 11.9035 20.3105 12.2859 21.4662 13.1031C22.6218 13.9203 23.4513 15.1198 23.8082 16.4895C24.165 17.8591 24.0261 19.3109 23.416 20.5881L26.484 23.6561C27.7254 22.8314 29.1361 22.2958 30.6121 22.0888C32.088 21.8818 33.5916 22.0087 35.012 22.4601L37.504 17.9721C36.8609 17.2444 36.4041 16.3715 36.1728 15.4283C35.9414 14.4852 35.9424 13.5 36.1758 12.5573C36.4091 11.6146 36.8677 10.7427 37.5123 10.0164C38.1569 9.29002 38.9681 8.73099 39.8764 8.38728C40.7846 8.04357 41.7628 7.92545 42.7267 8.04307C43.6907 8.16069 44.6117 8.51053 45.4106 9.06255C46.2096 9.61457 46.8626 10.3523 47.3136 11.2123C47.7647 12.0723 48.0002 13.029 48 14.0001Z" fill="url(#paint0_linear_51_373)"/>
</g>
<defs>
<linearGradient id="paint0_linear_51_373" x1="8" y1="7.9989" x2="64.0819" y2="20.9201" gradientUnits="userSpaceOnUse">
<stop stop-color="#F2F2F2"/>
<stop offset="1" stop-color="#F2F2F2" stop-opacity="0.4"/>
</linearGradient>
</defs>
</svg>
