<svg width="64" height="64" viewBox="0 0 64 64" fill="none" xmlns="http://www.w3.org/2000/svg">
<path d="M48 58.6667C50.9413 58.6667 53.3333 56.2747 53.3333 53.3334V10.6667C53.3333 7.72537 50.9413 5.33337 48 5.33337H21.3333C18.392 5.33337 16 7.72537 16 10.6667V53.3334C16 56.2747 18.392 58.6667 21.3333 58.6667H48ZM34.6667 45.3334C35.3739 45.3334 36.0522 45.6143 36.5523 46.1144C37.0524 46.6145 37.3333 47.2928 37.3333 48C37.3333 48.7073 37.0524 49.3856 36.5523 49.8857C36.0522 50.3858 35.3739 50.6667 34.6667 50.6667C33.9594 50.6667 33.2811 50.3858 32.781 49.8857C32.281 49.3856 32 48.7073 32 48C32 47.2928 32.281 46.6145 32.781 46.1144C33.2811 45.6143 33.9594 45.3334 34.6667 45.3334Z" fill="url(#paint0_linear_51_354)"/>
<defs>
<linearGradient id="paint0_linear_51_354" x1="16" y1="5.33337" x2="60.7704" y2="12.5539" gradientUnits="userSpaceOnUse">
<stop stop-color="#F2F2F2"/>
<stop offset="1" stop-color="#F2F2F2" stop-opacity="0.4"/>
</linearGradient>
</defs>
</svg>
