<svg width="64" height="64" viewBox="0 0 64 64" fill="none"
    xmlns="http://www.w3.org/2000/svg">
    <mask id="mask0_51_358" style="mask-type:luminance" maskUnits="userSpaceOnUse" x="3" y="8" width="58" height="49">
        <path d="M37.3334 53.3333H9.33337C8.27251 53.3333 7.25509 52.9119 6.50495 52.1617C5.7548 51.4116 5.33337 50.3942 5.33337 49.3333V14.6666C5.33337 13.6058 5.7548 12.5883 6.50495 11.8382C7.25509 11.0881 8.27251 10.6666 9.33337 10.6666H54.6667C55.7276 10.6666 56.745 11.0881 57.4951 11.8382C58.2453 12.5883 58.6667 13.6058 58.6667 14.6666V30.7453M52 54.6666V38.6666M52 38.6666L45.3334 45.3333M52 38.6666L58.6667 45.3333" stroke="white" stroke-width="4" stroke-linecap="round" stroke-linejoin="round"/>
        <path d="M5.33337 14.6666C5.33337 13.6058 5.7548 12.5883 6.50495 11.8382C7.25509 11.0881 8.27251 10.6666 9.33337 10.6666H54.6667C55.7276 10.6666 56.745 11.0881 57.4951 11.8382C58.2453 12.5883 58.6667 13.6058 58.6667 14.6666V26.6666H5.33337V14.6666Z" fill="white" stroke="white" stroke-width="4"/>
        <path d="M10.6667 18.6666C10.6667 17.1938 11.8606 15.9999 13.3333 15.9999C14.8061 15.9999 16 17.1938 16 18.6666C16 20.1393 14.8061 21.3333 13.3333 21.3333C11.8606 21.3333 10.6667 20.1393 10.6667 18.6666Z" fill="black"/>
        <path d="M18.6667 18.6666C18.6667 17.1938 19.8606 15.9999 21.3333 15.9999C22.8061 15.9999 24 17.1938 24 18.6666C24 20.1393 22.8061 21.3333 21.3333 21.3333C19.8606 21.3333 18.6667 20.1393 18.6667 18.6666Z" fill="black"/>
    </mask>
    <g mask="url(#mask0_51_358)">
        <path d="M0 0H64V64H0V0Z" fill="url(#paint0_linear_51_358)"/>
    </g>
    <defs>
        <linearGradient id="paint0_linear_51_358" x1="0" y1="0" x2="74.7762" y2="17.2284" gradientUnits="userSpaceOnUse">
            <stop stop-color="#F2F2F2"/>
            <stop offset="1" stop-color="#F2F2F2" stop-opacity="0.4"/>
        </linearGradient>
    </defs>
</svg>
