<svg width="64" height="64" viewBox="0 0 64 64" fill="none" xmlns="http://www.w3.org/2000/svg">
<g clip-path="url(#clip0_51_348)">
<path d="M50.6667 10.6666C52.0812 10.6666 53.4377 11.2285 54.4379 12.2287C55.4381 13.2289 56 14.5855 56 16V48C56 49.4144 55.4381 50.771 54.4379 51.7712C53.4377 52.7714 52.0812 53.3333 50.6667 53.3333H13.3333C11.9188 53.3333 10.5623 52.7714 9.5621 51.7712C8.5619 50.771 8 49.4144 8 48V16C8 14.5855 8.5619 13.2289 9.5621 12.2287C10.5623 11.2285 11.9188 10.6666 13.3333 10.6666H50.6667ZM50.6667 26.6666H13.3333V45.3333C13.3334 45.9865 13.5732 46.6169 14.0072 47.1049C14.4413 47.593 15.0393 47.9049 15.688 47.9813L16 48H48C48.6532 47.9999 49.2836 47.7601 49.7717 47.326C50.2598 46.892 50.5716 46.294 50.648 45.6453L50.6667 45.3333V26.6666ZM16 16C15.2928 16 14.6145 16.2809 14.1144 16.781C13.6143 17.2811 13.3333 17.9594 13.3333 18.6666C13.3333 19.3739 13.6143 20.0521 14.1144 20.5522C14.6145 21.0523 15.2928 21.3333 16 21.3333C16.7072 21.3333 17.3855 21.0523 17.8856 20.5522C18.3857 20.0521 18.6667 19.3739 18.6667 18.6666C18.6667 17.9594 18.3857 17.2811 17.8856 16.781C17.3855 16.2809 16.7072 16 16 16ZM24 16C23.2928 16 22.6145 16.2809 22.1144 16.781C21.6143 17.2811 21.3333 17.9594 21.3333 18.6666C21.3333 19.3739 21.6143 20.0521 22.1144 20.5522C22.6145 21.0523 23.2928 21.3333 24 21.3333C24.7072 21.3333 25.3855 21.0523 25.8856 20.5522C26.3857 20.0521 26.6667 19.3739 26.6667 18.6666C26.6667 17.9594 26.3857 17.2811 25.8856 16.781C25.3855 16.2809 24.7072 16 24 16ZM32 16C31.2928 16 30.6145 16.2809 30.1144 16.781C29.6143 17.2811 29.3333 17.9594 29.3333 18.6666C29.3333 19.3739 29.6143 20.0521 30.1144 20.5522C30.6145 21.0523 31.2928 21.3333 32 21.3333C32.7072 21.3333 33.3855 21.0523 33.8856 20.5522C34.3857 20.0521 34.6667 19.3739 34.6667 18.6666C34.6667 17.9594 34.3857 17.2811 33.8856 16.781C33.3855 16.2809 32.7072 16 32 16Z" fill="url(#paint0_linear_51_348)"/>
</g>
<defs>
<linearGradient id="paint0_linear_51_348" x1="8" y1="10.6666" x2="63.3411" y2="25.011" gradientUnits="userSpaceOnUse">
<stop stop-color="#F2F2F2"/>
<stop offset="1" stop-color="#F2F2F2" stop-opacity="0.4"/>
</linearGradient>
<clipPath id="clip0_51_348">
<rect width="64" height="64" fill="white"/>
</clipPath>
</defs>
</svg>
