<svg width="112" height="112" viewBox="0 0 112 112" fill="none" xmlns="http://www.w3.org/2000/svg">
<g id="simple-icons:mongodb" clip-path="url(#clip0_186_18)">
<path id="Vector" d="M80.234 44.59C74.3354 18.55 60.3914 9.99133 58.8934 6.72C57.5867 4.88133 56.42 2.268 55.4634 0C55.2954 2.31 55.2067 3.19667 53.0227 5.52533C49.6487 8.16667 32.312 22.708 30.9027 52.2853C29.5867 79.8747 50.8294 96.3153 53.7134 98.4107L54.04 98.644C54.64 103.086 55.1534 107.538 55.58 112H57.8247C58.361 107.185 59.1555 102.403 60.2047 97.6733C62.1507 96.292 63.0234 95.5127 64.1714 94.4393C69.6083 89.4104 73.9291 83.2962 76.8544 76.4923C79.7797 69.6884 81.2442 62.3462 81.1534 54.9407C81.2 51.142 80.6727 47.1847 80.234 44.59ZM55.3327 82.8333C55.3327 82.8333 55.3327 44.142 56.616 44.1467C57.61 44.1467 58.9027 94.0567 58.9027 94.0567C57.1247 93.8467 55.3327 85.8433 55.3327 82.8333Z" fill="url(#paint0_linear_186_18)"/>
</g>
<defs>
<linearGradient id="paint0_linear_186_18" x1="30.8441" y1="0" x2="92.0934" y2="6.3394" gradientUnits="userSpaceOnUse">
<stop stop-color="#F2F2F2"/>
<stop offset="1" stop-color="#F2F2F2" stop-opacity="0.4"/>
</linearGradient>
<clipPath id="clip0_186_18">
<rect width="112" height="112" fill="white"/>
</clipPath>
</defs>
</svg>
