<svg width="112" height="112" viewBox="0 0 112 112" fill="none" xmlns="http://www.w3.org/2000/svg">
<g id="simple-icons:raspberrypi" clip-path="url(#clip0_186_30)">
<path id="Vector" d="M92.848 50.848L92.0406 49.434C92.0733 39.2886 87.3646 35.154 81.872 32.0086C83.5333 31.57 85.2506 31.2059 85.722 29.1199C88.5733 28.392 89.1753 27.0666 89.4553 25.6666C90.202 25.172 92.7033 23.772 92.442 21.3733C93.842 20.4073 94.6213 19.166 94.2246 17.4066C95.7273 15.7733 96.124 14.4153 95.4846 13.1646C97.2906 10.9246 96.488 9.75795 95.718 8.58195C97.0713 6.13195 95.8766 3.50462 92.0966 3.94329C90.594 1.73595 87.318 2.23529 86.8093 2.24462C86.2446 1.53529 85.498 0.928619 83.1926 1.22262C81.6993 -0.107381 80.0333 0.121285 78.3113 0.774619C76.2673 -0.812048 74.9186 0.457285 73.374 0.942619C70.9006 0.144619 70.3313 1.23662 69.118 1.67995C66.4206 1.11995 65.5993 2.33795 64.3113 3.63062L62.804 3.60262C58.7346 5.96395 56.714 10.7706 55.9953 13.244C55.2813 10.7706 53.2606 5.96395 49.196 3.60262L47.6886 3.63062C46.396 2.33795 45.5746 1.11529 42.8866 1.67995C41.6593 1.23662 41.0946 0.139952 38.6213 0.942619C37.6086 0.625285 36.68 -0.0327146 35.5786 -4.79047e-05C34.882 0.0495071 34.2196 0.321007 33.6886 0.774619C31.962 0.121285 30.296 -0.107381 28.8073 1.22262C26.502 0.928619 25.7553 1.53995 25.186 2.24929C24.682 2.23529 21.406 1.73595 19.8986 3.94329C16.1186 3.50462 14.9286 6.13662 16.2773 8.58195C15.5073 9.75795 14.7093 10.9246 16.5106 13.1646C15.876 14.4153 16.2726 15.7686 17.7706 17.4113C17.3786 19.166 18.158 20.4073 19.558 21.3733C19.2966 23.7766 21.798 25.172 22.54 25.6666C22.8246 27.0666 23.4266 28.392 26.278 29.1199C26.7446 31.2106 28.4666 31.57 30.128 32.0086C24.6353 35.1493 19.9266 39.2886 19.9546 49.4386L19.152 50.848C12.8566 54.6233 7.19597 66.7426 16.0533 76.5939C16.632 79.6786 17.6026 81.8953 18.466 84.3453C19.7586 94.2246 28.1913 98.8493 30.4126 99.3999C33.6746 101.845 37.1466 104.16 41.846 105.793C46.27 110.287 51.0673 112 55.8926 112H56.1073C60.9326 112 65.73 110.287 70.154 105.793C74.8533 104.16 78.3253 101.841 81.5873 99.3999C83.8086 98.8493 92.246 94.2246 93.534 84.3453C94.402 81.8953 95.3726 79.6786 95.9466 76.5986C104.809 66.7426 99.1433 54.6186 92.848 50.848ZM87.9946 49.1166C87.668 53.2046 66.3646 34.8833 70.0466 34.2719C80.0286 32.6106 88.3353 38.4533 87.9993 49.112M78.596 69.4819C73.2386 72.9353 65.52 70.7046 61.3526 64.4933C57.1853 58.282 58.1513 50.4466 63.5086 46.9933C68.866 43.54 76.5893 45.7659 80.7566 51.9773C84.9193 58.1839 83.958 66.0239 78.596 69.4773M63.7466 6.40262C63.9333 7.32195 64.1386 7.90062 64.3766 8.07329C65.562 6.80395 66.5326 5.50662 68.054 4.27928C68.0586 4.99795 67.6946 5.77729 68.6 6.34662C69.5139 5.14856 70.6699 4.15637 71.9926 3.43462C71.2833 4.64795 71.8713 5.02129 72.2493 5.52529C73.3693 4.56395 74.4333 3.59329 76.496 2.83729C75.936 3.52795 75.1426 4.19995 75.9826 4.98862C77.1353 4.26995 78.2973 3.54662 81.0366 3.03795C80.4206 3.72395 79.142 4.41462 79.9166 5.10062C81.3633 4.54684 82.9702 4.15329 84.7373 3.91995C83.888 4.61995 83.1786 5.30129 83.8786 5.84262C85.428 5.36662 87.5653 4.72262 89.6513 5.27795L88.3306 6.60795C88.1813 6.78528 91.42 6.74795 93.5573 6.77595C92.778 7.85862 91.98 8.90395 91.518 10.766C91.728 10.9806 92.7873 10.8593 93.786 10.766C92.7593 12.922 90.986 13.4633 90.566 14.3873C91.196 14.8586 92.0593 14.7373 93.0113 14.4153C92.274 15.932 90.7246 16.9726 89.5066 18.2046C89.8146 18.424 90.356 18.5546 91.6346 18.4053C90.4193 19.6783 89.0379 20.7817 87.528 21.686C87.808 22.0126 88.7973 22.0033 89.7073 22.0219C88.2466 23.4546 86.3613 24.1966 84.5973 25.1346C85.4746 25.7413 86.1046 25.6013 86.7766 25.5873C85.5306 26.614 83.4073 27.1506 81.438 27.7666C81.8113 28.35 82.1846 28.5086 82.9873 28.672C80.9013 29.8246 77.9146 29.2973 77.07 29.8853C77.2753 30.4686 77.8493 30.8466 78.5353 31.1639C75.1753 31.3553 65.9913 31.038 64.232 24.0893C67.6713 20.3093 73.9433 15.876 84.7373 10.3973C76.3373 13.2066 68.7633 16.954 62.4213 22.1106C54.964 18.6386 60.1066 9.88395 63.742 6.40729M56.2146 31.4766C61.502 31.4206 68.0493 35.3593 68.0213 39.0786C67.998 42.3546 63.4246 45.01 56.2613 44.9586C49.238 44.8793 44.5106 41.622 44.5293 38.4486C44.5386 35.8353 50.26 31.3226 56.2146 31.4766ZM29.316 28.6766C30.1186 28.5086 30.492 28.35 30.8653 27.7666C28.896 27.1506 26.7726 26.614 25.522 25.592C26.1986 25.5966 26.8286 25.7366 27.706 25.1393C25.942 24.2013 24.0566 23.4593 22.596 22.0266C23.506 22.0033 24.4906 22.0173 24.7753 21.686C23.2653 20.7817 21.884 19.6783 20.6686 18.4053C21.9473 18.5546 22.4886 18.424 22.7966 18.2046C21.574 16.9726 20.0293 15.932 19.292 14.4153C20.2393 14.7373 21.1073 14.8586 21.7326 14.3873C21.3173 13.4633 19.5393 12.922 18.5126 10.766C19.516 10.8593 20.5753 10.9806 20.7853 10.766C20.3186 8.90395 19.5253 7.85862 18.746 6.77595C20.8833 6.74329 24.122 6.78528 23.9726 6.60795L22.652 5.27795C24.738 4.72262 26.8753 5.36662 28.4246 5.84262C29.1246 5.30129 28.4153 4.61528 27.566 3.91995C29.3362 4.1564 30.9446 4.55151 32.3913 5.10529C33.1613 4.41462 31.8873 3.72395 31.2666 3.03795C34.006 3.55129 35.168 4.26995 36.3206 4.98862C37.1606 4.19529 36.3673 3.52795 35.8026 2.84195C37.87 3.59329 38.9293 4.56862 40.054 5.52529C40.432 5.02129 41.02 4.65262 40.3106 3.43462C41.7806 4.26529 42.8866 5.24995 43.7033 6.34662C44.6086 5.77729 44.2446 4.99795 44.2493 4.28395C45.7706 5.50195 46.7413 6.80395 47.9266 8.07329C48.16 7.90062 48.37 7.32195 48.5566 6.40262C52.1966 9.87928 57.33 18.634 49.8773 22.106C43.54 16.954 35.966 13.2066 27.5753 10.3973C38.3646 15.876 44.6366 20.3093 48.0713 24.0846C46.312 31.038 37.128 31.3553 33.768 31.1593C34.454 30.842 35.028 30.4639 35.2333 29.8853C34.3933 29.2973 31.402 29.8293 29.316 28.6766ZM42.462 33.9593C46.1393 34.566 24.836 52.8873 24.5093 48.7993C24.1733 38.1453 32.48 32.3026 42.4666 33.964M19.8473 74.8253C14.672 70.7233 13.006 58.7113 22.6006 53.312C28.3873 51.7859 24.556 76.888 19.8473 74.8253ZM39.7553 96.292C36.834 98.0233 29.7453 97.3093 24.7053 90.1786C21.3033 84.1959 21.742 78.1059 24.1313 76.3186C27.7013 74.172 33.2126 77.0653 37.4593 81.9186C41.1553 86.3053 42.84 94.0146 39.7553 96.292ZM33.9593 70.112C28.602 66.6586 27.636 58.8186 31.8033 52.612C35.9706 46.4053 43.6893 44.1653 49.0466 47.628C54.404 51.0813 55.37 58.9213 51.2073 65.128C47.04 71.3393 39.3213 73.5746 33.964 70.1166M56.3406 108.519C49.9193 108.789 43.6193 103.339 43.7033 101.444C43.61 98.672 51.5246 96.5066 56.686 96.6373C61.88 96.4086 68.852 98.2799 68.866 100.763C68.95 103.175 62.5426 108.621 56.3406 108.519ZM69.216 81.1813C69.2533 87.668 63.4946 92.9506 56.35 92.988C49.21 93.0206 43.3906 87.7893 43.3533 81.3026V81.1813C43.316 74.6946 49.0746 69.4073 56.2146 69.3746C63.3546 69.3419 69.1786 74.5686 69.216 81.0553V81.1813ZM87.206 90.5286C81.6713 98.0886 74.1766 98.3873 71.386 96.278C68.4693 93.5713 70.6953 85.1479 74.6993 80.5326C79.2726 75.4366 84.1726 72.114 87.5793 74.7086C89.8753 76.9626 91.2193 85.4466 87.206 90.5286ZM92.2086 74.5219C87.5 76.5753 83.6686 51.478 89.4553 53.0086C99.0546 58.408 97.3886 70.4153 92.2086 74.5219ZM92.0873 35.658H93.4826V33.1846H94.878C95.578 33.1846 95.8346 33.4739 95.9326 34.1413C96.0026 34.6453 95.984 35.2566 96.1566 35.658H97.5473C97.3 35.3033 97.3046 34.5566 97.2813 34.16C97.2346 33.516 97.0433 32.8533 96.3573 32.6759V32.6573C97.0573 32.3773 97.3606 31.8173 97.3606 31.0706C97.3606 30.1093 96.642 29.3206 95.508 29.3206H92.092L92.0873 35.658ZM93.4826 30.4033H95.0086C95.6293 30.4033 95.9653 30.674 95.9653 31.2806C95.9653 31.92 95.6293 32.186 95.0086 32.186H93.4826V30.4033ZM88.6573 32.5686C88.6573 33.3469 88.8106 34.1176 89.1084 34.8367C89.4063 35.5557 89.8428 36.2091 90.3932 36.7594C90.9435 37.3097 91.5969 37.7463 92.3159 38.0441C93.035 38.342 93.8057 38.4953 94.584 38.4953C95.3623 38.4953 96.1329 38.342 96.852 38.0441C97.5711 37.7463 98.2244 37.3097 98.7748 36.7594C99.3251 36.2091 99.7617 35.5557 100.059 34.8367C100.357 34.1176 100.511 33.3469 100.511 32.5686C100.511 30.9968 99.8862 29.4893 98.7748 28.3778C97.6633 27.2664 96.1558 26.642 94.584 26.642C93.0121 26.642 91.5046 27.2664 90.3932 28.3778C89.2817 29.4893 88.6573 30.9968 88.6573 32.5686ZM99.5213 32.5686C99.5213 33.8781 99.0011 35.1339 98.0752 36.0598C97.1493 36.9858 95.8934 37.506 94.584 37.506C93.2745 37.506 92.0187 36.9858 91.0927 36.0598C90.1668 35.1339 89.6466 33.8781 89.6466 32.5686C89.6466 31.2592 90.1668 30.0033 91.0927 29.0774C92.0187 28.1515 93.2745 27.6313 94.584 27.6313C95.8934 27.6313 97.1493 28.1515 98.0752 29.0774C99.0011 30.0033 99.5213 31.2592 99.5213 32.5686Z" fill="url(#paint0_linear_186_30)"/>
</g>
<defs>
<linearGradient id="paint0_linear_186_30" x1="11.481" y1="-0.0012207" x2="117.48" y2="19.4142" gradientUnits="userSpaceOnUse">
<stop stop-color="#F2F2F2"/>
<stop offset="1" stop-color="#F2F2F2" stop-opacity="0.4"/>
</linearGradient>
<clipPath id="clip0_186_30">
<rect width="112" height="112" fill="white"/>
</clipPath>
</defs>
</svg>
