<svg width="184" height="143" viewBox="0 0 184 143" fill="none" xmlns="http://www.w3.org/2000/svg">
<path d="M94.6244 73.3332C99.0709 69.4843 102.637 64.7239 105.082 59.375C107.526 54.0262 108.791 48.2141 108.791 42.3332C108.791 31.2825 104.401 20.6844 96.5872 12.8704C88.7732 5.05637 78.1751 0.666505 67.1244 0.666505C56.0737 0.666505 45.4757 5.05637 37.6617 12.8704C29.8476 20.6844 25.4578 31.2825 25.4578 42.3332C25.4577 48.2141 26.7228 54.0262 29.1671 59.375C31.6115 64.7239 35.178 69.4843 39.6244 73.3332C27.9589 78.6155 18.0616 87.1459 11.1159 97.9044C4.17022 108.663 0.470029 121.194 0.457764 134C0.457764 136.21 1.33574 138.33 2.89854 139.892C4.46134 141.455 6.58096 142.333 8.7911 142.333C11.0012 142.333 13.1209 141.455 14.6837 139.892C16.2465 138.33 17.1244 136.21 17.1244 134C17.1244 120.739 22.3923 108.021 31.7691 98.6445C41.1459 89.2677 53.8636 83.9998 67.1244 83.9998C80.3853 83.9998 93.103 89.2677 102.48 98.6445C111.857 108.021 117.124 120.739 117.124 134C117.124 136.21 118.002 138.33 119.565 139.892C121.128 141.455 123.248 142.333 125.458 142.333C127.668 142.333 129.788 141.455 131.35 139.892C132.913 138.33 133.791 136.21 133.791 134C133.779 121.194 130.079 108.663 123.133 97.9044C116.187 87.1459 106.29 78.6155 94.6244 73.3332ZM67.1244 67.3332C62.1799 67.3332 57.3464 65.867 53.2352 63.1199C49.1239 60.3729 45.9196 56.4684 44.0274 51.9003C42.1353 47.3321 41.6402 42.3054 42.6048 37.4559C43.5694 32.6064 45.9505 28.1518 49.4468 24.6555C52.9431 21.1592 57.3977 18.7782 62.2472 17.8135C67.0967 16.8489 72.1234 17.344 76.6915 19.2362C81.2597 21.1284 85.1641 24.3327 87.9112 28.4439C90.6582 32.5551 92.1244 37.3886 92.1244 42.3332C92.1244 48.9636 89.4905 55.3224 84.8021 60.0108C80.1137 64.6993 73.7548 67.3332 67.1244 67.3332ZM148.291 69.9998C153.624 63.9943 157.108 56.5753 158.323 48.636C159.538 40.6967 158.432 32.5755 155.139 25.2498C151.846 17.9242 146.506 11.7065 139.762 7.34503C133.017 2.98359 125.156 0.664357 117.124 0.666505C114.914 0.666505 112.795 1.54448 111.232 3.10728C109.669 4.67009 108.791 6.7897 108.791 8.99984C108.791 11.21 109.669 13.3296 111.232 14.8924C112.795 16.4552 114.914 17.3332 117.124 17.3332C123.755 17.3332 130.114 19.9671 134.802 24.6555C139.491 29.3439 142.124 35.7028 142.124 42.3332C142.113 46.7102 140.952 51.0074 138.758 54.795C136.565 58.5827 133.415 61.728 129.624 63.9165C128.389 64.6292 127.357 65.647 126.627 66.8727C125.898 68.0983 125.495 69.4907 125.458 70.9165C125.423 72.3312 125.749 73.7315 126.405 74.9853C127.061 76.2392 128.026 77.3053 129.208 78.0832L132.458 80.2498L133.541 80.8332C143.586 85.5975 152.06 93.1331 157.966 102.552C163.871 111.972 166.962 122.883 166.874 134C166.874 136.21 167.752 138.33 169.315 139.892C170.878 141.455 172.998 142.333 175.208 142.333C177.418 142.333 179.538 141.455 181.1 139.892C182.663 138.33 183.541 136.21 183.541 134C183.609 121.212 180.406 108.619 174.237 97.417C168.067 86.2154 159.136 76.7775 148.291 69.9998Z" fill="url(#paint0_linear_51_343)"/>
<defs>
<linearGradient id="paint0_linear_51_343" x1="0.457764" y1="0.666504" x2="207.379" y2="62.2793" gradientUnits="userSpaceOnUse">
<stop stop-color="#F2F2F2"/>
<stop offset="1" stop-color="#F2F2F2" stop-opacity="0.4"/>
</linearGradient>
</defs>
</svg>
